<svg xmlns="http://www.w3.org/2000/svg" viewBox="0 0 512 512" width="512" height="512">
  <rect width="512" height="512" rx="80" fill="#f15a24"/>
  <g fill="white" transform="translate(256,256)">
    <path transform="rotate(-45) translate(-30,-20)" d="
      M-8,140 C-8,148 -2,154 6,154 C14,154 20,148 20,140
      L20,20 C26,18 30,12 30,-20 C30,-50 10,-70 6,-70
      C2,-70 -18,-50 -18,-20 C-18,12 -14,18 -8,20 Z
      M-14,-20 C-14,-46 -4,-62 6,-62 C16,-62 26,-46 26,-20
      C26,4 18,14 6,14 C-6,14 -14,4 -14,-20 Z
      M-8,-62 L-8,-130 L0,-130 L0,-62 Z
      M12,-62 L12,-130 L20,-130 L20,-62 Z
      M2,-62 L2,-130 L10,-130 L10,-62 Z
    "/>
    <path transform="rotate(45) translate(20,-20)" d="
      M8,140 C8,148 14,154 22,154 C30,154 36,148 36,140
      L36,10 C50,0 60,-30 60,-70 C60,-110 44,-130 22,-130
      L22,10 C14,10 8,18 8,140 Z
    "/>
  </g>
</svg>
