<svg width="512" height="512" viewBox="0 0 512 512" fill="none" xmlns="http://www.w3.org/2000/svg">
  <rect width="512" height="512" rx="100" fill="#f15a24"/>
  <path d="M150 120 L362 332 M362 120 L150 332" stroke="white" stroke-width="40" stroke-linecap="round"/>
  <!-- Simplified Fork and Knife line art -->
  <g transform="translate(110, 110) scale(1.2)">
    <path d="M50 20 V100 M40 20 V60 M60 20 V60 M30 20 V100" stroke="white" stroke-width="12" stroke-linecap="round"/>
    <path d="M30 100 Q30 140 50 140 Q70 140 70 100 V20" stroke="white" stroke-width="12" stroke-linecap="round" fill="none"/>
    <path d="M50 140 V280" stroke="white" stroke-width="12" stroke-linecap="round"/>
  </g>
  <g transform="translate(260, 110) scale(1.2)">
    <path d="M100 20 Q140 20 140 100 Q140 240 120 280 L100 280 Q80 240 80 100 Q80 20 100 20 Z" stroke="white" stroke-width="12" stroke-linecap="round" fill="none"/>
    <path d="M110 20 L110 280" stroke="white" stroke-width="4" stroke-opacity="0.3"/>
  </g>
</svg>
